# xmcd
#
# Track frame offsets: 
#        150
#        20451
#        37169
#        53826
#        70457
#        89378
#        106255
#        123163
#        139110
#        156526
#        174031
#        191206
#        209122
#        223992
#        241019
#        262557
#        279960
#        298200
#        314743
#        333784
#
# Disc length: 4728 seconds
#
# Revision: 1
# Processed by: cddbd v1.5.2PL0 Copyright (c) Steve Scherf et al.
# Submitted via: ExactAudioCopy v1.3
#
DISCID=33127614
DTITLE=Various Artist - Spirit Of Blues - Modern Blues
DYEAR=2010
DGENRE=Blues
TTITLE0=Koko Taylor - 63 Year Old Mama
TTITLE1=Fred Chapellier Feat. Neal Black - Further On Up The Road
TTITLE2=Demi Evans - Trouble In Mind
TTITLE3=Deborah Coleman - The Dream
TTITLE4=Shemekia Copeland - Married To The Blues
TTITLE5=Micheal Hill's - Presumed Innocent
TTITLE6=Johnny Winter - Third Degree
TTITLE7=Rab Mccullough - When The Blues Come Callin'
TTITLE8=Cyril Lance - Same Thing
TTITLE9=Amar Sundy - This Morning
TTITLE10=Bill Perry - Clean Thing
TTITLE11=Coco Montoya - Can't See The Streets For My Tears
TTITLE12=Cyril Lance and Johnny Neel - When I First Met You
TTITLE13=Lonnie Brooks - Hoodoo She Do
TTITLE14=The Kinsey Report - Down In The Dungeon
TTITLE15=Gashouse Dave - See That My Grave Is Kept Clean
TTITLE16=Albert Collins - Lights Are On But Nobody's Home
TTITLE17=Tommy Castro - Come Back Baby
TTITLE18=Phil Brown - If 6 Was 9
TTITLE19=Saffire - The Uppity Blues Women - If I Should Die Tonight
EXTD=CD 4 - Modern blues
EXTT0=
EXTT1=
EXTT2=
EXTT3=
EXTT4=
EXTT5=
EXTT6=
EXTT7=
EXTT8=
EXTT9=
EXTT10=
EXTT11=
EXTT12=
EXTT13=
EXTT14=
EXTT15=
EXTT16=
EXTT17=
EXTT18=
EXTT19=
PLAYORDER=
